# xmcd CD database file
#
# Track frame offsets:
#	150
#	13790
#	26547
#	45020
#	74045
#	106030
#	117472
#	137335
#	155247
#	177002
#	192712
#	230282
#	254387
#
# Disc length: 3564 seconds
#
# Revision: 0
# Processed by: cddbd v1.4PL0 Copyright (c) Steve Scherf et al.
# Submitted via: CDex 1.50
#
DISCID=ab0dea0d
DTITLE=The Red Tops - Rosedal Courthouse Red Tops Dances
DYEAR=1953
DGENRE=Blues
TTITLE0=Swanee River Rock
TTITLE1=Hello, is that you?
TTITLE2=Talk about a party
TTITLE3=Moonglow
TTITLE4=Castlerock
TTITLE5=Swanee River Rock (live)
TTITLE6=Caravan
TTITLE7=Brazil
TTITLE8=Don't take your love from me
TTITLE9=I'm in the mood for love
TTITLE10=Haste (Baseball Game)
TTITLE11=Honky Tonk
TTITLE12=Danny Boy
EXTD=YEAR: 1953
EXTT0=
EXTT1=
EXTT2=
EXTT3=
EXTT4=
EXTT5=
EXTT6=
EXTT7=
EXTT8=
EXTT9=
EXTT10=
EXTT11=
EXTT12=
PLAYORDER=
